<mxfile host="65bd71144e">
    <diagram id="CK1qa3xUITbvuvo2nGgO" name="arbiter">
        <mxGraphModel dx="1145" dy="860" grid="1" gridSize="10" guides="1" tooltips="1" connect="1" arrows="1" fold="1" page="1" pageScale="1" pageWidth="827" pageHeight="1169" math="0" shadow="0">
            <root>
                <mxCell id="bLYkK8IUNObh7OQKGWZr-0"/>
                <mxCell id="bLYkK8IUNObh7OQKGWZr-1" parent="bLYkK8IUNObh7OQKGWZr-0"/>
                <mxCell id="5IBvSNRu1bGkODmt6wI3-0" value="Arbiter" style="shape=trapezoid;perimeter=trapezoidPerimeter;whiteSpace=wrap;html=1;fixedSize=1;rotation=90;horizontal=0;fontStyle=1;fontSize=17;" parent="bLYkK8IUNObh7OQKGWZr-1" vertex="1">
                    <mxGeometry x="300.29" y="439.72" width="239.43" height="120" as="geometry"/>
                </mxCell>
                <mxCell id="5IBvSNRu1bGkODmt6wI3-1" value="" style="shape=flexArrow;endArrow=classic;html=1;" parent="bLYkK8IUNObh7OQKGWZr-1" edge="1">
                    <mxGeometry width="50" height="50" relative="1" as="geometry">
                        <mxPoint x="280" y="410" as="sourcePoint"/>
                        <mxPoint x="360" y="410" as="targetPoint"/>
                    </mxGeometry>
                </mxCell>
                <mxCell id="5IBvSNRu1bGkODmt6wI3-2" value="" style="shape=flexArrow;endArrow=classic;html=1;" parent="bLYkK8IUNObh7OQKGWZr-1" edge="1">
                    <mxGeometry width="50" height="50" relative="1" as="geometry">
                        <mxPoint x="280" y="490" as="sourcePoint"/>
                        <mxPoint x="360" y="490" as="targetPoint"/>
                    </mxGeometry>
                </mxCell>
                <mxCell id="5IBvSNRu1bGkODmt6wI3-3" value="" style="shape=flexArrow;endArrow=classic;html=1;" parent="bLYkK8IUNObh7OQKGWZr-1" edge="1">
                    <mxGeometry width="50" height="50" relative="1" as="geometry">
                        <mxPoint x="280" y="570" as="sourcePoint"/>
                        <mxPoint x="360" y="570" as="targetPoint"/>
                    </mxGeometry>
                </mxCell>
                <mxCell id="5IBvSNRu1bGkODmt6wI3-4" value="" style="endArrow=classic;html=1;" parent="bLYkK8IUNObh7OQKGWZr-1" edge="1">
                    <mxGeometry width="50" height="50" relative="1" as="geometry">
                        <mxPoint x="280" y="430" as="sourcePoint"/>
                        <mxPoint x="360" y="430" as="targetPoint"/>
                    </mxGeometry>
                </mxCell>
                <mxCell id="5IBvSNRu1bGkODmt6wI3-5" value="" style="endArrow=classic;html=1;" parent="bLYkK8IUNObh7OQKGWZr-1" edge="1">
                    <mxGeometry width="50" height="50" relative="1" as="geometry">
                        <mxPoint x="360" y="440" as="sourcePoint"/>
                        <mxPoint x="280" y="440" as="targetPoint"/>
                    </mxGeometry>
                </mxCell>
                <mxCell id="5IBvSNRu1bGkODmt6wI3-6" value="" style="endArrow=classic;html=1;" parent="bLYkK8IUNObh7OQKGWZr-1" edge="1">
                    <mxGeometry width="50" height="50" relative="1" as="geometry">
                        <mxPoint x="280" y="510" as="sourcePoint"/>
                        <mxPoint x="360" y="510" as="targetPoint"/>
                    </mxGeometry>
                </mxCell>
                <mxCell id="5IBvSNRu1bGkODmt6wI3-7" value="" style="endArrow=classic;html=1;" parent="bLYkK8IUNObh7OQKGWZr-1" edge="1">
                    <mxGeometry width="50" height="50" relative="1" as="geometry">
                        <mxPoint x="360" y="520" as="sourcePoint"/>
                        <mxPoint x="280" y="520" as="targetPoint"/>
                    </mxGeometry>
                </mxCell>
                <mxCell id="5IBvSNRu1bGkODmt6wI3-8" value="" style="endArrow=classic;html=1;" parent="bLYkK8IUNObh7OQKGWZr-1" edge="1">
                    <mxGeometry width="50" height="50" relative="1" as="geometry">
                        <mxPoint x="280" y="590" as="sourcePoint"/>
                        <mxPoint x="360" y="590" as="targetPoint"/>
                    </mxGeometry>
                </mxCell>
                <mxCell id="5IBvSNRu1bGkODmt6wI3-9" value="" style="endArrow=classic;html=1;" parent="bLYkK8IUNObh7OQKGWZr-1" edge="1">
                    <mxGeometry width="50" height="50" relative="1" as="geometry">
                        <mxPoint x="360" y="600" as="sourcePoint"/>
                        <mxPoint x="280" y="600" as="targetPoint"/>
                    </mxGeometry>
                </mxCell>
                <mxCell id="5IBvSNRu1bGkODmt6wI3-10" value="" style="shape=flexArrow;endArrow=classic;html=1;" parent="bLYkK8IUNObh7OQKGWZr-1" edge="1">
                    <mxGeometry width="50" height="50" relative="1" as="geometry">
                        <mxPoint x="480" y="484.52" as="sourcePoint"/>
                        <mxPoint x="560" y="484.52" as="targetPoint"/>
                    </mxGeometry>
                </mxCell>
                <mxCell id="5IBvSNRu1bGkODmt6wI3-11" value="" style="endArrow=classic;html=1;" parent="bLYkK8IUNObh7OQKGWZr-1" edge="1">
                    <mxGeometry width="50" height="50" relative="1" as="geometry">
                        <mxPoint x="480" y="504.52" as="sourcePoint"/>
                        <mxPoint x="560" y="504.52" as="targetPoint"/>
                    </mxGeometry>
                </mxCell>
                <mxCell id="5IBvSNRu1bGkODmt6wI3-12" value="" style="endArrow=classic;html=1;" parent="bLYkK8IUNObh7OQKGWZr-1" edge="1">
                    <mxGeometry width="50" height="50" relative="1" as="geometry">
                        <mxPoint x="560" y="514.52" as="sourcePoint"/>
                        <mxPoint x="480" y="514.52" as="targetPoint"/>
                    </mxGeometry>
                </mxCell>
            </root>
        </mxGraphModel>
    </diagram>
</mxfile>